# xmcd
#
# Track frame offsets:
#	150
#	13602
#	31565
#	48791
#	67653
#	85770
#	97562
#	109967
#	129156
#	144222
#	158719
#	174652
#	190557
#	210812
#	223009
#
# Disc length: 3156 seconds
#
# Revision: 2
# Processed by: cddbd v1.5.2PL0 Copyright (c) Steve Scherf et al.
# Submitted via: audiograbber 1.83.01
#
DISCID=a40c520f
DTITLE=Zydeco Annie +Swamp Cats - Zydeco Groove
DYEAR=2008
DGENRE=Zydeco Groove
TTITLE0=Cher Catin
TTITLE1=Lucille
TTITLE2=Zydeco Groove
TTITLE3=Accordion Annie
TTITLE4=Ma Hatamala Baby
TTITLE5=Cowboy Cadillac
TTITLE6=Bon Temps Lousana
TTITLE7=Miguen
TTITLE8=Its Too Late
TTITLE9=41 Days
TTITLE10=You Used To Call Me
TTITLE11=Bown Suger
TTITLE12=Lost Higway
TTITLE13=La Bas Two Step
TTITLE14=Zydeco Party
EXTD=
EXTT0=Orig: Clifton Chenier
EXTT1=Orig. Little Richard
EXTT2=Orig. Lynn August
EXTT3=Orig.: Amazon Annie, Lynn August
EXTT4=Orig.: Clifton Chenier
EXTT5=Orig.: Garth Brooks - B. Kennedy
EXTT6=Orig.: Jude Taylor
EXTT7=Orig.:Lynn August
EXTT8=Orig.:C.Willis
EXTT9=Orig.:Boozoo Chavis
EXTT10=Orig.: Clifton Chenier
EXTT11=M. Jagger - K. Richards
EXTT12=Orig.: Hank Willams
EXTT13=Orig.: Qeen Ida
EXTT14=Orig.: Koslowski
PLAYORDER=
